Coordinates
version=1
nRows=7
nColumns=40
inDegrees=yes

Units are S.I. units (second, meters, Newtons, ...)
Angles are in degrees.

endheader
time	pelvis_tilt	pelvis_list	pelvis_rotation	pelvis_tx	pelvis_ty	pelvis_tz	hip_flexion_r	hip_adduction_r	hip_rotation_r	knee_angle_r	knee_angle_r_beta	ankle_angle_r	subtalar_angle_r	mtp_angle_r	hip_flexion_l	hip_adduction_l	hip_rotation_l	knee_angle_l	knee_angle_l_beta	ankle_angle_l	subtalar_angle_l	mtp_angle_l	lumbar_extension	lumbar_bending	lumbar_rotation	arm_flex_r	arm_add_r	arm_rot_r	elbow_flex_r	pro_sup_r	wrist_flex_r	wrist_dev_r	arm_flex_l	arm_add_l	arm_rot_l	elbow_flex_l	pro_sup_l	wrist_flex_l	wrist_dev_l
     47.13000000	     -3.22497744	     -2.32775622	     -0.34767615	      0.95880439	      0.92709712	      0.41958015	     28.59288572	     -2.21449097	    -10.77114704	     21.10750209	     21.10750209	      3.04870467	     -5.21614958	      5.31276849	     -1.52022181	     -1.02205108	    -11.49010051	     10.42634367	     10.42634367	     17.06695295	     -5.58920472	     -2.68153738	     -9.28102828	      6.00620766	      2.34048206	    -18.37195641	    -11.54700162	    -14.18413486	     22.31331179	     46.90543786	      0.00000000	      0.00000000	     24.82828563	    -16.14853310	     -8.71916061	     78.92917680	     47.63176579	      0.00000000	      0.00000000
     47.14185714	     -3.17634678	     -2.30060451	     -0.41837302	      0.96065507	      0.92562686	      0.42104125	     27.74241281	     -2.05300293	    -11.59746957	     19.98821621	     19.98821621	      3.32580802	     -4.21392052	      5.58927307	     -2.29874496	     -1.07246510	    -11.64456215	     10.29720043	     10.29720043	     17.58840671	     -5.31384110	     -2.61850071	     -9.13848708	      5.97102780	      2.37319464	    -18.15238626	    -11.63875960	    -14.18032329	     22.31717242	     46.90805427	      0.00000000	      0.00000000	     24.49142325	    -16.18567114	     -8.70426977	     79.44111500	     47.64551984	      0.00000000	      0.00000000
     47.15371429	     -3.20778077	     -2.31729143	     -0.49169558	      0.96256884	      0.92404154	      0.42269329	     27.09279940	     -1.84229443	    -12.23943190	     19.42959002	     19.42959002	      3.53044350	     -3.68376743	      5.53698109	     -2.90153488	     -1.20205761	    -11.71961601	     10.34543816	     10.34543816	     18.12972233	     -5.17347452	     -2.52049539	     -8.90669016	      5.95489384	      2.39432555	    -17.77252605	    -11.70725694	    -14.16748749	     22.37419421	     46.90895462	      0.00000000	      0.00000000	     24.09243437	    -16.21806455	     -8.67581171	     79.75496903	     47.65235749	      0.00000000	      0.00000000
     47.16557143	     -3.22912714	     -2.29950154	     -0.52974250	      0.96462617	      0.92249924	      0.42444903	     26.55404774	     -1.75159753	    -12.93936952	     19.39750356	     19.39750356	      3.43868123	     -3.29063920	      4.06650553	     -3.36197862	     -1.38580226	    -12.10982554	     10.77428841	     10.77428841	     19.37091121	     -4.33344226	     -1.11690275	     -8.66777882	      5.88119852	      1.93556031	    -16.82880991	    -11.86396864	    -13.99605247	     22.00510482	     46.92423215	      0.00000000	      0.00000000	     23.00582384	    -16.55319907	     -9.00155569	     80.90823645	     47.71705153	      0.00000000	      0.00000000
     47.17742857	     -3.24722220	     -2.38190542	     -0.57195266	      0.96670670	      0.92114605	      0.42634870	     26.09676466	     -1.50694393	    -13.21034512	     19.71581925	     19.71581925	      3.70099987	     -3.49201535	      3.82098587	     -3.89002834	     -1.62031851	    -12.05084781	     10.98831510	     10.98831510	     19.74139897	     -4.48367360	     -1.15697053	     -8.41796288	      5.95621254	      2.11008781	    -16.30367342	    -11.87200763	    -13.96696055	     22.15763181	     46.92040009	      0.00000000	      0.00000000	     22.57603780	    -16.29590567	     -8.89360604	     80.74988409	     47.70585609	      0.00000000	      0.00000000
     47.18928571	     -3.21804013	     -2.44116807	     -0.53582922	      0.96878762	      0.91997310	      0.42831827	     25.56374810	     -1.32312735	    -13.50593498	     20.03352525	     20.03352525	      2.97472352	     -4.07387424	      0.53195572	     -4.10508382	     -1.99382617	    -12.31874524	     11.99814555	     11.99814555	     21.12900303	     -3.88228872	      0.64836967	     -8.21888550	      5.96951238	      1.69333333	    -15.01978944	    -12.05706361	    -13.56566161	     21.46835490	     46.93786836	      0.00000000	      0.00000000	     21.67978785	    -16.43237295	     -9.25991109	     80.73081273	     47.75800434	      0.00000000	      0.00000000
     47.20114286	     -3.23799669	     -2.54356142	     -0.52745581	      0.97083378	      0.91897315	      0.43042547	     25.29744565	     -1.12020856	    -13.56000876	     20.86913757	     20.86913757	      3.34265563	     -4.51716947	     -0.09730825	     -4.32770618	     -2.35196416	    -12.20802374	     12.77180071	     12.77180071	     21.44844732	     -4.20349389	      0.66472695	     -7.99373825	      6.06330853	      1.71722746	    -14.22217231	    -12.10675336	    -13.49984266	     21.67727710	     46.93292294	      0.00000000	      0.00000000	     21.08118691	    -16.30592054	     -9.15842763	     80.31419291	     47.74629512	      0.00000000	      0.00000000
